<svg width="78" height="14" viewBox="0 0 78 14" fill="none" xmlns="http://www.w3.org/2000/svg">
<path d="M12.5344 5.23565C12.4952 5.12011 12.423 5.0186 12.3267 4.94363C12.2304 4.86866 12.1143 4.82352 11.9927 4.81379L8.43446 4.53109L6.89471 1.12314C6.84567 1.01338 6.76591 0.920153 6.66505 0.854712C6.5642 0.789271 6.44655 0.754415 6.32632 0.754349C6.20609 0.754283 6.08841 0.78901 5.98748 0.85434C5.88655 0.91967 5.80669 1.01281 5.75753 1.12252L4.21778 4.53109L0.659565 4.81379C0.540014 4.82326 0.425724 4.86696 0.330366 4.93968C0.235008 5.01239 0.162621 5.11104 0.121865 5.22381C0.081109 5.33658 0.0737095 5.4587 0.100552 5.57557C0.127394 5.69244 0.187342 5.7991 0.273223 5.88279L2.90272 8.44577L1.97275 12.4722C1.94451 12.594 1.95356 12.7216 1.99873 12.8383C2.04389 12.9549 2.12308 13.0553 2.22603 13.1264C2.32897 13.1975 2.45092 13.2361 2.57603 13.237C2.70115 13.238 2.82367 13.2013 2.92768 13.1318L6.32612 10.8665L9.72455 13.1318C9.83087 13.2024 9.95625 13.2387 10.0838 13.2359C10.2114 13.2331 10.3351 13.1913 10.4382 13.1161C10.5413 13.041 10.6189 12.936 10.6606 12.8154C10.7023 12.6948 10.7061 12.5644 10.6714 12.4416L9.52982 8.44764L12.3609 5.90026C12.5463 5.73302 12.6143 5.47216 12.5344 5.23565Z" fill="#758091"/>
<path d="M28.858 5.23565C28.8188 5.12011 28.7466 5.0186 28.6503 4.94363C28.554 4.86866 28.4379 4.82352 28.3163 4.81379L24.7581 4.53109L23.2183 1.12314C23.1693 1.01338 23.0895 0.920153 22.9887 0.854712C22.8878 0.789271 22.7702 0.754415 22.6499 0.754349C22.5297 0.754283 22.412 0.78901 22.3111 0.85434C22.2102 0.91967 22.1303 1.01281 22.0811 1.12252L20.5414 4.53109L16.9832 4.81379C16.8636 4.82326 16.7493 4.86696 16.654 4.93968C16.5586 5.01239 16.4862 5.11104 16.4455 5.22381C16.4047 5.33658 16.3973 5.4587 16.4242 5.57557C16.451 5.69244 16.511 5.7991 16.5968 5.88279L19.2263 8.44577L18.2964 12.4722C18.2681 12.594 18.2772 12.7216 18.3223 12.8383C18.3675 12.9549 18.4467 13.0553 18.5496 13.1264C18.6526 13.1975 18.7745 13.2361 18.8996 13.237C19.0248 13.238 19.1473 13.2013 19.2513 13.1318L22.6497 10.8665L26.0482 13.1318C26.1545 13.2024 26.2799 13.2387 26.4074 13.2359C26.535 13.2331 26.6587 13.1913 26.7618 13.1161C26.8649 13.041 26.9425 12.936 26.9842 12.8154C27.0259 12.6948 27.0297 12.5644 26.995 12.4416L25.8534 8.44764L28.6845 5.90026C28.8699 5.73302 28.9379 5.47216 28.858 5.23565Z" fill="#758091"/>
<path d="M45.1815 5.23565C45.1423 5.12011 45.0701 5.0186 44.9738 4.94363C44.8775 4.86866 44.7614 4.82352 44.6398 4.81379L41.0816 4.53109L39.5418 1.12314C39.4928 1.01338 39.413 0.920153 39.3121 0.854712C39.2113 0.789271 39.0936 0.754415 38.9734 0.754349C38.8532 0.754283 38.7355 0.78901 38.6346 0.85434C38.5336 0.91967 38.4538 1.01281 38.4046 1.12252L36.8649 4.53109L33.3067 4.81379C33.1871 4.82326 33.0728 4.86696 32.9775 4.93968C32.8821 5.01239 32.8097 5.11104 32.769 5.22381C32.7282 5.33658 32.7208 5.4587 32.7476 5.57557C32.7745 5.69244 32.8344 5.7991 32.9203 5.88279L35.5498 8.44577L34.6198 12.4722C34.5916 12.594 34.6007 12.7216 34.6458 12.8383C34.691 12.9549 34.7702 13.0553 34.8731 13.1264C34.9761 13.1975 35.098 13.2361 35.2231 13.237C35.3482 13.238 35.4708 13.2013 35.5748 13.1318L38.9732 10.8665L42.3716 13.1318C42.478 13.2024 42.6033 13.2387 42.7309 13.2359C42.8585 13.2331 42.9822 13.1913 43.0853 13.1161C43.1884 13.041 43.266 12.936 43.3077 12.8154C43.3494 12.6948 43.3532 12.5644 43.3185 12.4416L42.1769 8.44764L45.008 5.90026C45.1934 5.73302 45.2614 5.47216 45.1815 5.23565Z" fill="#758091"/>
<path d="M61.5051 5.23565C61.4659 5.12011 61.3937 5.0186 61.2974 4.94363C61.2011 4.86866 61.085 4.82352 60.9633 4.81379L57.4051 4.53109L55.8654 1.12314C55.8163 1.01338 55.7366 0.920153 55.6357 0.854712C55.5349 0.789271 55.4172 0.754415 55.297 0.754349C55.1768 0.754283 55.0591 0.78901 54.9581 0.85434C54.8572 0.91967 54.7774 1.01281 54.7282 1.12252L53.1885 4.53109L49.6302 4.81379C49.5107 4.82326 49.3964 4.86696 49.301 4.93968C49.2057 5.01239 49.1333 5.11104 49.0925 5.22381C49.0518 5.33658 49.0444 5.4587 49.0712 5.57557C49.0981 5.69244 49.158 5.7991 49.2439 5.88279L51.8734 8.44577L50.9434 12.4722C50.9152 12.594 50.9242 12.7216 50.9694 12.8383C51.0146 12.9549 51.0938 13.0553 51.1967 13.1264C51.2996 13.1975 51.4216 13.2361 51.5467 13.237C51.6718 13.238 51.7943 13.2013 51.8984 13.1318L55.2968 10.8665L58.6952 13.1318C58.8015 13.2024 58.9269 13.2387 59.0545 13.2359C59.1821 13.2331 59.3057 13.1913 59.4089 13.1161C59.512 13.041 59.5896 12.936 59.6313 12.8154C59.673 12.6948 59.6767 12.5644 59.642 12.4416L58.5005 8.44764L61.3316 5.90026C61.517 5.73302 61.585 5.47216 61.5051 5.23565Z" fill="#758091"/>
<path d="M77.8286 5.23565C77.7894 5.12011 77.7172 5.0186 77.6209 4.94363C77.5246 4.86866 77.4085 4.82352 77.2869 4.81379L73.7286 4.53109L72.1889 1.12314C72.1399 1.01338 72.0601 0.920153 71.9592 0.854712C71.8584 0.789271 71.7407 0.754415 71.6205 0.754349C71.5003 0.754283 71.3826 0.78901 71.2817 0.85434C71.1807 0.91967 71.1009 1.01281 71.0517 1.12252L69.512 4.53109L65.9538 4.81379C65.8342 4.82326 65.7199 4.86696 65.6246 4.93968C65.5292 5.01239 65.4568 5.11104 65.4161 5.22381C65.3753 5.33658 65.3679 5.4587 65.3947 5.57557C65.4216 5.69244 65.4815 5.7991 65.5674 5.88279L68.1969 8.44577L67.2669 12.4722C67.2387 12.594 67.2478 12.7216 67.2929 12.8383C67.3381 12.9549 67.4173 13.0553 67.5202 13.1264C67.6232 13.1975 67.7451 13.2361 67.8702 13.237C67.9953 13.238 68.1179 13.2013 68.2219 13.1318L71.6203 10.8665L75.0187 13.1318C75.1251 13.2024 75.2504 13.2387 75.378 13.2359C75.5056 13.2331 75.6293 13.1913 75.7324 13.1161C75.8355 13.041 75.9131 12.936 75.9548 12.8154C75.9965 12.6948 76.0002 12.5644 75.9656 12.4416L74.824 8.44764L77.6551 5.90026C77.8405 5.73302 77.9085 5.47216 77.8286 5.23565Z" fill="#758091"/>
</svg>
